<?xml version="1.0" encoding="UTF-8" standalone="no"?>
<svg
   xmlns:dc="http://purl.org/dc/elements/1.1/"
   xmlns:cc="http://creativecommons.org/ns#"
   xmlns:rdf="http://www.w3.org/1999/02/22-rdf-syntax-ns#"
   xmlns:svg="http://www.w3.org/2000/svg"
   xmlns="http://www.w3.org/2000/svg"
   xmlns:sodipodi="http://sodipodi.sourceforge.net/DTD/sodipodi-0.dtd"
   xmlns:inkscape="http://www.inkscape.org/namespaces/inkscape"
   version="1.0"
   width="405.02347pt"
   height="436.14084pt"
   viewBox="0 0 405.02347 436.14084"
   preserveAspectRatio="xMidYMid meet"
   id="svg3785"
   sodipodi:docname="logo.svg"
   inkscape:version="0.92.4 5da689c313, 2019-01-14">
  <defs
     id="defs3789" />
  <sodipodi:namedview
     pagecolor="#ffffff"
     bordercolor="#666666"
     borderopacity="1"
     objecttolerance="10"
     gridtolerance="10"
     guidetolerance="10"
     inkscape:pageopacity="0"
     inkscape:pageshadow="2"
     inkscape:window-width="1354"
     inkscape:window-height="712"
     id="namedview3787"
     showgrid="false"
     inkscape:zoom="0.7575"
     inkscape:cx="270"
     inkscape:cy="289.93439"
     inkscape:window-x="4"
     inkscape:window-y="26"
     inkscape:window-maximized="0"
     inkscape:current-layer="svg3785" />
  <metadata
     id="metadata3771">
Created by potrace 1.16, written by Peter Selinger 2001-2019
<rdf:RDF>
  <cc:Work
     rdf:about="">
    <dc:format>image/svg+xml</dc:format>
    <dc:type
       rdf:resource="http://purl.org/dc/dcmitype/StillImage" />
    <dc:title></dc:title>
  </cc:Work>
</rdf:RDF>
</metadata>
  <g
     transform="matrix(0.1,0,0,-0.1,-47.5,468.69003)"
     id="g3783"
     style="fill:#aaaaaa;stroke:none">
    <path
       d="m 2434,4676 c -39,-17 -71,-58 -84,-107 -7,-25 -10,-310 -8,-836 3,-777 4,-799 23,-832 45,-77 136,-102 209,-59 81,48 76,-10 76,913 0,779 -1,822 -19,855 -10,19 -30,43 -44,54 -33,24 -112,31 -153,12 z"
       id="path3773"
       inkscape:connector-curvature="0" />
    <path
       d="m 1223,3899 c -45,-9 -72,-29 -161,-117 -296,-293 -492,-678 -569,-1117 -24,-140 -24,-490 0,-630 76,-440 266,-812 568,-1115 315,-315 697,-508 1139,-577 153,-24 474,-23 610,1 364,64 665,198 947,418 621,487 901,1307 708,2078 -69,277 -215,571 -388,785 -64,79 -229,245 -261,262 -39,20 -110,19 -149,-4 -61,-36 -92,-123 -67,-188 5,-14 64,-82 130,-151 72,-75 148,-167 191,-231 344,-515 392,-1149 128,-1703 C 3891,1278 3594,976 3265,812 2640,501 1915,592 1376,1048 940,1418 712,2023 796,2587 c 56,381 226,716 499,988 71,71 96,103 105,134 30,112 -65,214 -177,190 z"
       id="path3775"
       inkscape:connector-curvature="0" />
    <path
       d="m 1215,2601 c -51,-23 -102,-81 -110,-123 -4,-19 -5,-113 -3,-210 l 3,-176 31,-39 c 63,-77 67,-78 351,-78 h 251 l 44,30 c 48,35 88,96 88,138 0,26 -2,28 -36,25 -32,-3 -38,-8 -48,-38 -6,-20 -25,-44 -45,-57 -33,-22 -41,-23 -255,-23 -204,0 -224,2 -254,20 -52,32 -62,69 -62,230 0,153 7,181 56,219 25,20 39,21 260,21 h 232 l 31,-26 c 17,-14 35,-40 39,-57 7,-28 13,-32 46,-35 l 39,-3 -6,41 c -7,54 -50,108 -107,138 -42,21 -55,22 -275,22 -201,0 -235,-3 -270,-19 z"
       id="path3777"
       inkscape:connector-curvature="0" />
    <path
       d="m 2140,2580 v -40 h 160 160 v -285 -285 h 40 40 v 285 285 h 160 160 v 40 40 h -360 -360 z"
       id="path3779"
       inkscape:connector-curvature="0" />
    <path
       d="m 3202,2600 c -58,-36 -73,-73 -70,-172 3,-86 4,-88 41,-125 l 37,-38 291,-5 c 291,-5 291,-5 310,-29 27,-33 26,-119 -2,-155 l -20,-26 h -265 c -168,0 -273,4 -285,11 -11,5 -24,21 -29,35 -8,19 -17,24 -45,24 -30,0 -35,-3 -35,-24 0,-34 40,-88 80,-109 31,-16 63,-17 317,-15 267,3 283,4 309,24 58,43 69,69 69,157 0,70 -4,87 -23,115 -40,56 -44,57 -349,62 -277,5 -283,5 -305,28 -31,30 -33,129 -4,161 19,20 27,21 292,21 268,0 274,0 294,-22 11,-12 20,-25 20,-30 0,-4 18,-8 39,-8 39,0 39,1 31,29 -13,45 -38,78 -75,95 -28,13 -78,16 -312,16 -260,0 -280,-1 -311,-20 z"
       id="path3781"
       inkscape:connector-curvature="0" />
  </g>
</svg>
